HIERARCHY
ROOT Hips
{
	OFFSET 0.00000 0.00000 0.00000
	CHANNELS 6 Xposition Yposition Zposition Zrotation Yrotation Xrotation 
	JOINT LHipJoint
	{
		OFFSET 0 0 0
		CHANNELS 3 Zrotation Yrotation Xrotation
		JOINT LeftHip
		{
			OFFSET 1.53794 -1.55850 0.93568
			CHANNELS 3 Zrotation Yrotation Xrotation
			JOINT LeftKnee
			{
				OFFSET 2.28545 -6.27922 0.00000
				CHANNELS 3 Zrotation Yrotation Xrotation
				JOINT LeftAnkle
				{
					OFFSET 2.37329 -6.52057 0.00000
					CHANNELS 3 Zrotation Yrotation Xrotation
					JOINT LeftToe
					{
						OFFSET 0.14846 -0.40788 2.09160
						CHANNELS 3 Zrotation Yrotation Xrotation
						End Site
						{
							OFFSET 0.00000 -0.00000 1.07536
						}
					}
				}
			}
		}
	}
	JOINT RHipJoint
	{
		OFFSET 0 0 0
		CHANNELS 3 Zrotation Yrotation Xrotation
		JOINT RightHip
		{
			OFFSET -1.78290 -1.55850 0.93568
			CHANNELS 3 Zrotation Yrotation Xrotation
			JOINT RightKnee
			{
				OFFSET -2.24144 -6.15831 0.00000
				CHANNELS 3 Zrotation Yrotation Xrotation
				JOINT RightAnkle
				{
					OFFSET -2.35091 -6.45907 0.00000
					CHANNELS 3 Zrotation Yrotation Xrotation
					JOINT RightToe
					{
						OFFSET -0.14428 -0.39641 2.07944
						CHANNELS 3 Zrotation Yrotation Xrotation
						End Site
						{
							OFFSET -0.00000 -0.00000 1.06864
						}
					}
				}
			}
		}
	}
	JOINT lowerback
	{
		OFFSET 0 0 0
		CHANNELS 3 Zrotation Yrotation Xrotation
		JOINT Chest
		{
			OFFSET -0.08841 2.11430 -0.15818
			CHANNELS 3 Zrotation Yrotation Xrotation
			JOINT Chest2
			{
				OFFSET -0.00033 2.12605 -0.08097
				CHANNELS 3 Zrotation Yrotation Xrotation
				JOINT lowerneck
				{
					OFFSET 0 0 0
					CHANNELS 3 Zrotation Yrotation Xrotation
					JOINT Neck
					{
						OFFSET 0.04431 1.59447 0.43193
						CHANNELS 3 Zrotation Yrotation Xrotation
						JOINT Head
						{
							OFFSET 0.00455 1.62017 -0.58852
							CHANNELS 3 Zrotation Yrotation Xrotation
							End Site
							{
								OFFSET -0.00920 1.72955 -0.25850
							}
						}
					}
				}
				JOINT LeftCollar
				{
					OFFSET 0 0 0
					CHANNELS 3 Zrotation Yrotation Xrotation
					JOINT LeftShoulder
					{
						OFFSET 2.86490 1.49927 -0.33774
CHANNELS 3 Zrotation Xrotation Yrotation
						JOINT LeftElbow
						{
OFFSET 0 -4.874080 0.000000
CHANNELS 3 Zrotation Xrotation Yrotation
							JOINT LeftWrist
							{
OFFSET 0 -2.767290 0.000000
CHANNELS 3 Zrotation Xrotation Yrotation
								JOINT lhand
								{
									OFFSET 0 0 0
CHANNELS 3 Zrotation Xrotation Yrotation
									JOINT LFingers
									{
OFFSET 0 -0.989220 0.000000
CHANNELS 3 Zrotation Xrotation Yrotation
										End Site
										{
OFFSET 0 -0.797530 0.000000
										}
									}
								}
								JOINT LThumb
								{
OFFSET 0 0.000000 0.000000
CHANNELS 3 Zrotation Xrotation Yrotation
									End Site
									{
OFFSET 0 -0.809720 0.809720
									}
								}
							}
						}
					}
				}
				JOINT RightCollar
				{
					OFFSET 0 0 0
					CHANNELS 3 Zrotation Yrotation Xrotation
					JOINT RightShoulder
					{
						OFFSET -2.94414 1.45463 -0.25291
CHANNELS 3 Zrotation Xrotation Yrotation
						JOINT RightElbow
						{
OFFSET 0 -4.714040 0.000000
CHANNELS 3 Zrotation Xrotation Yrotation
							JOINT RightWrist
							{
OFFSET 0 -2.834680 0.000000
CHANNELS 3 Zrotation Xrotation Yrotation
								JOINT rhand
								{
									OFFSET 0 0 0
CHANNELS 3 Zrotation Xrotation Yrotation
									JOINT RFingers
									{
OFFSET 0 -0.868200 0.000000
CHANNELS 3 Zrotation Xrotation Yrotation
										End Site
										{
OFFSET 0 -0.699960 0.000000
										}
									}
								}
								JOINT RThumb
								{
OFFSET 0 0.000000 0.000000
CHANNELS 3 Zrotation Xrotation Yrotation
									End Site
									{
OFFSET 0 -0.710650 0.710650
									}
								}
							}
						}
					}
				}
			}
		}
	}
}
MOTION
Frames: 6
Frame Time: 0.008333333333333333
0.805600 16.488300 31.212900 177.089000 2.343000 -171.318000 0.000000 0.000000 0.000000 -28.121700 -0.587700 -1.153800 4.484600 12.778700 38.545700 3.348700 14.346900 33.207000 0.784400 5.654100 15.783900 0.000000 0.000000 0.000000 14.627500 16.675400 -35.396200 -3.919300 -12.052200 35.916800 -0.463200 -11.284600 13.517000 -1.436400 7.577600 -21.438100 -4.128200 -5.293300 -5.035800 -2.123500 -6.616900 0.745600 -0.454200 -3.304700 3.802500 7.509500 3.048700 -28.370200 -3.505200 6.478900 42.484600 -1.083600 4.217500 23.975900 0.000000 0.000000 0.000000 26.041800 14.795000 -62.863300 109.227100 -58.556000 76.570500 13.976600 21.898700 -1.718000 0.000000 0.000000 0.000000 -7.125000 0.000000 0.000000 -10.074900 31.647800 -3.335700 0.000000 0.000000 0.000000 -15.981800 50.104500 32.848700 -68.248000 -58.134500 -41.280200 -7.867600 2.339900 5.343100 0.000000 0.000000 0.000000 7.125000 0.000000 -0.000000 15.532800 35.014500 3.929700
0.813249 16.464086 31.106392 177.164259 2.441041 -171.421072 0.000000 0.000000 0.000000 -27.999486 -0.519967 -1.464733 4.698678 13.029876 39.491179 3.437947 14.507684 33.658839 0.839576 5.840038 16.322327 0.000000 0.000000 0.000000 14.937615 16.540752 -34.979414 -3.967605 -12.116783 36.146830 -0.500257 -11.019804 13.803679 -1.609454 7.982279 -22.670012 -4.077932 -5.199022 -4.952279 -2.113397 -6.501803 0.747032 -0.452359 -3.247438 3.749369 7.642634 3.070255 -28.368768 -3.608844 6.468593 42.424925 -1.171620 4.220036 23.939579 0.000000 0.000000 0.000000 26.045890 15.128674 -62.798635 109.063003 -58.581195 76.430412 13.961385 21.885939 -1.716282 0.000000 0.000000 0.000000 -7.125000 0.000000 0.000000 -10.086761 31.645714 -3.340240 0.000000 0.000000 0.000000 -16.016853 49.996520 33.044618 -68.281539 -58.140472 -41.308667 -7.817496 2.228034 5.277167 0.000000 0.000000 0.000000 7.125000 0.000000 0.000000 15.559999 34.947912 3.963239
0.820897 16.439873 30.999885 177.239518 2.539082 -171.524144 0.000000 0.000000 0.000000 -27.877273 -0.452234 -1.775666 4.912757 13.281052 40.436658 3.527194 14.668468 34.110678 0.894752 6.025976 16.860755 0.000000 0.000000 0.000000 15.247730 16.406105 -34.562627 -4.015909 -12.181367 36.376860 -0.537314 -10.755007 14.090357 -1.782509 8.386959 -23.901925 -4.027664 -5.104744 -4.868758 -2.103295 -6.386706 0.748463 -0.450519 -3.190176 3.696238 7.775769 3.091810 -28.367337 -3.712489 6.458286 42.365249 -1.259640 4.222572 23.903259 0.000000 0.000000 0.000000 26.049980 15.462349 -62.733969 108.898906 -58.606391 76.290325 13.946169 21.873177 -1.714564 0.000000 0.000000 0.000000 -7.125000 0.000000 0.000000 -10.098623 31.643628 -3.344780 0.000000 0.000000 0.000000 -16.051905 49.888540 33.240536 -68.315078 -58.146443 -41.337135 -7.767391 2.116169 5.211234 0.000000 0.000000 0.000000 7.125000 0.000000 0.000000 15.587199 34.881325 3.996778
0.829113 16.413071 30.894399 177.296840 2.629676 -171.629486 0.000000 0.000000 0.000000 -27.760735 -0.383457 -2.120747 5.147042 13.542037 41.443326 3.566923 14.809067 34.317058 0.923137 6.121097 17.136309 0.000000 0.000000 0.000000 15.570606 16.171353 -34.157034 -4.074794 -12.258801 36.654456 -0.666233 -10.502063 15.203185 -1.575489 7.755632 -22.052359 -4.000691 -5.012169 -4.781082 -2.098005 -6.271700 0.753368 -0.441254 -3.133141 3.646558 7.796629 3.086165 -28.406002 -3.734851 6.425751 42.328574 -1.285972 4.208011 23.884012 0.000000 0.000000 0.000000 26.035339 15.792118 -62.626461 108.730791 -58.631836 76.146786 13.885091 21.809172 -1.726605 0.000000 0.000000 0.000000 -7.125000 0.000000 0.000000 -10.148424 31.654325 -3.359038 0.000000 0.000000 0.000000 -16.053559 49.751907 33.413024 -68.314516 -58.146330 -41.336654 -7.743715 2.069556 5.098370 0.000000 0.000000 0.000000 7.125000 0.000000 0.000000 15.583974 34.770486 4.039286
0.837784 16.384194 30.789732 177.339786 2.714301 -171.736648 0.000000 0.000000 0.000000 -27.648747 -0.313843 -2.493196 5.397523 13.810882 42.499035 3.566964 14.933489 34.326711 0.930049 6.143429 17.201179 0.000000 0.000000 0.000000 15.903707 15.856370 -33.760413 -4.142159 -12.346535 36.970175 -0.868777 -10.258617 16.978146 -1.063852 6.293976 -17.733078 -3.992388 -4.920959 -4.690077 -2.096574 -6.156767 0.761058 -0.426039 -3.076288 3.599644 7.727506 3.058720 -28.476802 -3.692068 6.375401 42.310332 -1.262863 4.179748 23.878450 0.000000 0.000000 0.000000 26.005686 16.118758 -62.484614 108.559454 -58.657481 76.000481 13.787254 21.704096 -1.749674 0.000000 0.000000 0.000000 -7.125000 0.000000 0.000000 -10.228631 31.675266 -3.381084 0.000000 0.000000 0.000000 -16.028446 49.592309 33.566731 -68.286621 -58.141340 -41.312972 -7.741220 2.075241 4.947893 0.000000 0.000000 0.000000 7.125000 0.000000 0.000000 15.556366 34.624181 4.088981
0.846429 16.354840 30.685169 177.388863 2.790740 -171.838536 0.000000 0.000000 0.000000 -27.526161 -0.248970 -2.873020 5.649167 14.078236 43.554351 3.548758 15.058182 34.246286 0.929092 6.139410 17.189714 0.000000 0.000000 0.000000 16.235200 15.553571 -33.360982 -4.209312 -12.433732 37.284343 -1.011777 -9.930403 18.139068 -0.653125 5.127539 -14.283355 -4.013947 -4.833124 -4.619634 -2.064076 -6.045228 0.780359 -0.365717 -3.023027 3.582759 7.637283 3.030753 -28.563203 -3.668018 6.342189 42.286302 -1.241426 4.149962 23.876132 0.000000 0.000000 0.000000 25.917745 16.422301 -62.328876 108.361434 -58.686827 75.831342 13.703234 21.625331 -1.775870 0.000000 0.000000 0.000000 -7.125000 0.000000 0.000000 -10.298278 31.699724 -3.398654 0.000000 0.000000 0.000000 -16.043918 49.401930 33.721368 -68.270770 -58.138496 -41.299522 -7.744981 2.061801 4.829492 0.000000 0.000000 0.000000 7.125000 0.000000 0.000000 15.530033 34.509353 4.126709
